<svg xmlns="http://www.w3.org/2000/svg" xmlns:xlink="http://www.w3.org/1999/xlink" xmlns:lucid="lucid" width="1480" height="1240"><g transform="translate(-60 -80)" lucid:page-tab-id="0_0"><path d="M868 100c17.67 0 32 17.9 32 40s-14.33 40-32 40h-96c-17.67 0-32-17.9-32-40s14.33-40 32-40z" stroke="#5e5e5e" stroke-width="3" fill="#fff"/><use xlink:href="#a" transform="matrix(1,0,0,1,745,105) translate(51.574074074074076 39.65277777777778)"/><path d="M740 426c0-3.3 2.7-6 6-6h148c3.3 0 6 2.7 6 6v108c0 3.3-2.7 6-6 6H746c-3.3 0-6-2.7-6-6z" stroke="#5e5e5e" stroke-width="3" fill="#fff"/><path d="M756 420v120m128-120v120" stroke="#5e5e5e" stroke-width="3" fill="none"/><use xlink:href="#b" transform="matrix(1,0,0,1,765,425) translate(31.574074074074076 46.111111111111114)"/><use xlink:href="#c" transform="matrix(1,0,0,1,765,425) translate(16.790123456790127 72.77777777777777)"/><path d="M769.18 245.3c1.56-2.93 5.5-5.3 8.82-5.3h84c3.3 0 7.26 2.37 8.82 5.3l26.36 49.4c1.56 2.93 1.56 7.67 0 10.6l-26.36 49.4c-1.56 2.93-5.5 5.3-8.82 5.3h-84c-3.3 0-7.26-2.37-8.82-5.3l-26.36-49.4c-1.56-2.93-1.56-7.67 0-10.6z" stroke="#5e5e5e" stroke-width="3" fill="#fff"/><use xlink:href="#d" transform="matrix(1,0,0,1,745,245) translate(40.46796296296296 31.52777777777778)"/><use xlink:href="#e" transform="matrix(1,0,0,1,745,245) translate(16.424753086419763 58.19444444444445)"/><use xlink:href="#f" transform="matrix(1,0,0,1,745,245) translate(103.95561728395062 58.19444444444445)"/><use xlink:href="#g" transform="matrix(1,0,0,1,745,245) translate(42.9370987654321 84.86111111111111)"/><path d="M1135.2 823.6c2.65-2 6.95-2 9.6 0l70.4 52.8c2.65 2 2.65 5.2 0 7.2l-70.4 52.8c-2.65 2-6.95 2-9.6 0l-70.4-52.8c-2.65-2-2.65-5.2 0-7.2z" stroke="#5e5e5e" stroke-width="3" fill="#fff"/><use xlink:href="#h" transform="matrix(1,0,0,1,1065,825) translate(68.95561728395062 29.631944444444443)"/><use xlink:href="#i" transform="matrix(1,0,0,1,1065,825) translate(43.07290123456791 48.29861111111111)"/><use xlink:href="#j" transform="matrix(1,0,0,1,1065,825) translate(33.97722222222224 66.96527777777777)"/><use xlink:href="#k" transform="matrix(1,0,0,1,1065,825) translate(90.10685185185186 66.96527777777777)"/><use xlink:href="#l" transform="matrix(1,0,0,1,1065,825) translate(49.53277777777778 85.63194444444444)"/><path d="M460 626c0-3.3 2.7-6 6-6h148c3.3 0 6 2.7 6 6v108c0 3.3-2.7 6-6 6H466c-3.3 0-6-2.7-6-6z" stroke="#5e5e5e" stroke-width="3" fill="#fff"/><use xlink:href="#m" transform="matrix(1,0,0,1,472,632) translate(7.4135802469135825 26.77777777777778)"/><use xlink:href="#n" transform="matrix(1,0,0,1,472,632) translate(69.51234567901234 26.77777777777778)"/><use xlink:href="#o" transform="matrix(1,0,0,1,472,632) translate(104.01851851851852 26.77777777777778)"/><use xlink:href="#p" transform="matrix(1,0,0,1,472,632) translate(24.23456790123457 53.44444444444445)"/><use xlink:href="#q" transform="matrix(1,0,0,1,472,632) translate(94.5432098765432 53.44444444444445)"/><use xlink:href="#c" transform="matrix(1,0,0,1,472,632) translate(29.790123456790127 80.11111111111111)"/><path d="M740 826c0-3.3 2.7-6 6-6h148c3.3 0 6 2.7 6 6v108c0 3.3-2.7 6-6 6H746c-3.3 0-6-2.7-6-6z" stroke="#5e5e5e" stroke-width="3" fill="#fff"/><use xlink:href="#r" transform="matrix(1,0,0,1,752,832) translate(43.339506172839506 26.77777777777778)"/><use xlink:href="#s" transform="matrix(1,0,0,1,752,832) translate(22.382716049382715 53.44444444444445)"/><use xlink:href="#t" transform="matrix(1,0,0,1,752,832) translate(41.48765432098766 80.11111111111111)"/><path d="M815.2 623.6c2.65-2 6.95-2 9.6 0l70.4 52.8c2.65 2 2.65 5.2 0 7.2l-70.4 52.8c-2.65 2-6.95 2-9.6 0l-70.4-52.8c-2.65-2-2.65-5.2 0-7.2z" stroke="#5e5e5e" stroke-width="3" fill="#fff"/><use xlink:href="#u" transform="matrix(1,0,0,1,745,625) translate(43.65623456790124 57.13194444444444)"/><use xlink:href="#v" transform="matrix(1,0,0,1,745,625) translate(60.07598765432099 57.13194444444444)"/><path d="M1360 826c0-3.3 2.7-6 6-6h148c3.3 0 6 2.7 6 6v108c0 3.3-2.7 6-6 6h-148c-3.3 0-6-2.7-6-6z" stroke="#5e5e5e" stroke-width="3" fill="#fff"/><use xlink:href="#w" transform="matrix(1,0,0,1,1372,832) translate(10.71604938271605 26.77777777777778)"/><use xlink:href="#x" transform="matrix(1,0,0,1,1372,832) translate(69.79012345679013 26.77777777777778)"/><use xlink:href="#p" transform="matrix(1,0,0,1,1372,832) translate(23.586419753086425 53.44444444444445)"/><use xlink:href="#y" transform="matrix(1,0,0,1,1372,832) translate(93.89506172839506 53.44444444444445)"/><use xlink:href="#z" transform="matrix(1,0,0,1,1372,832) translate(39.63580246913581 80.11111111111111)"/><path d="M820 182.5V220" stroke="#5e5e5e" stroke-width="2" fill="none"/><path d="M821 182.53h-2v-1.03h2" fill="#5e5e5e"/><path d="M820 235.26L815.36 221h9.28z" stroke="#5e5e5e" stroke-width="2" fill="#5e5e5e"/><path d="M820 362.5V400" stroke="#5e5e5e" stroke-width="2" fill="none"/><path d="M821 362.53h-2v-1.03h2" fill="#5e5e5e"/><path d="M820 415.26L815.36 401h9.28z" stroke="#5e5e5e" stroke-width="2" fill="#5e5e5e"/><path d="M820 542.5v59.67" stroke="#5e5e5e" stroke-width="2" fill="none"/><path d="M821 542.53h-2v-1.03h2" fill="#5e5e5e"/><path d="M820 617.43l-4.64-14.26h9.28z" stroke="#5e5e5e" stroke-width="2" fill="#5e5e5e"/><path d="M666.14 681H640v-2h26.14m74.25 2h-43.65v-2h43.64" fill="#5e5e5e"/><path d="M741.28 679.4l.28 1.6h-1.2v-2h1.1M639 684.64L624.74 680l14.26-4.64z" fill="#5e5e5e"/><path d="M640 686l-18.5-6 18.5-6m-12.03 6l10.03 3.26v-6.52" fill="#5e5e5e"/><use xlink:href="#A" transform="matrix(1,0,0,1,666.1357955048976,669.3333333333334) translate(0 14.222222222222223)"/><path d="M821 800h-2v-10.42h2m0-21.33h-2v-27.92h2" fill="#5e5e5e"/><path d="M821 739.35v1h-2v-1.04M820 815.26L815.36 801h9.28z" fill="#5e5e5e"/><path d="M820 818.5l-6-18.5h12m-9.26 2l3.26 10.03 3.26-10.03" fill="#5e5e5e"/><use xlink:href="#B" transform="matrix(1,0,0,1,808.1975308641976,768.2480493152058) translate(0 14.222222222222223)"/><path d="M1273.25 881h-53.64v-2h53.65m66.75 2h-36.14v-2H1340" fill="#5e5e5e"/><path d="M1219.64 881h-1.1l.18-.4-.28-1.6h1.2M1355.26 880l-14.26 4.64v-9.28z" fill="#5e5e5e"/><path d="M1358.5 880l-18.5 6v-12m2 9.26l10.03-3.26-10.03-3.26" fill="#5e5e5e"/><use xlink:href="#A" transform="matrix(1,0,0,1,1273.2469205444852,869.3333333333334) translate(0 14.222222222222223)"/><path d="M902.5 880h140.4" stroke="#5e5e5e" stroke-width="2" fill="none"/><path d="M902.53 881h-1.03v-2h1.03" fill="#5e5e5e"/><path d="M1058.15 880l-14.26 4.64v-9.28z" stroke="#5e5e5e" stroke-width="2" fill="#5e5e5e"/><path d="M1135.2 983.6c2.65-2 6.95-2 9.6 0l70.4 52.8c2.65 2 2.65 5.2 0 7.2l-70.4 52.8c-2.65 2-6.95 2-9.6 0l-70.4-52.8c-2.65-2-2.65-5.2 0-7.2z" stroke="#5e5e5e" stroke-width="3" fill="#fff"/><use xlink:href="#C" transform="matrix(1,0,0,1,1065,985) translate(22.764259259259273 50.25694444444444)"/><use xlink:href="#D" transform="matrix(1,0,0,1,1065,985) translate(51.23956790123458 50.25694444444444)"/><use xlink:href="#E" transform="matrix(1,0,0,1,1065,985) translate(82.35067901234568 50.25694444444444)"/><use xlink:href="#l" transform="matrix(1,0,0,1,1065,985) translate(49.53277777777778 68.92361111111111)"/><path d="M1141 949.33h-2v-9h2" fill="#5e5e5e"/><path d="M1141 939.35v1h-2v-1.04M1140 977.43l-2.2-6.76h4.4z" fill="#5e5e5e"/><path d="M1140 980.67l-3.25-10h2.1l1.15 3.53 1.15-3.53h2.1" fill="#5e5e5e"/><use xlink:href="#B" transform="matrix(1,0,0,1,1128.1975308641975,949.3333333333334) translate(0 14.222222222222223)"/><path d="M817 1033.87l.7 2.64 1.8 1.8 2.63.7h52v2h-52.26l-3.42-.92-2.53-2.53-.92-3.42V960h2m243.4 79v2H904.74v-2" fill="#5e5e5e"/><path d="M1061.28 1039.4l.28 1.6h-1.2v-2h1.1M820.64 959h-9.28l4.64-14.26z" fill="#5e5e5e"/><path d="M822 960h-12l6-18.5m-3.26 16.5h6.52L816 947.97" fill="#5e5e5e"/><use xlink:href="#A" transform="matrix(1,0,0,1,874.1357955048976,1029.3333333333333) translate(0 14.222222222222223)"/><path d="M1360 646c0-3.3 2.7-6 6-6h148c3.3 0 6 2.7 6 6v108c0 3.3-2.7 6-6 6h-148c-3.3 0-6-2.7-6-6z" stroke="#5e5e5e" stroke-width="3" fill="#fff"/><use xlink:href="#F" transform="matrix(1,0,0,1,1372,652) translate(12.567901234567913 26.77777777777778)"/><use xlink:href="#G" transform="matrix(1,0,0,1,1372,652) translate(65.59259259259261 26.77777777777778)"/><use xlink:href="#H" transform="matrix(1,0,0,1,1372,652) translate(20.592592592592595 53.44444444444445)"/><use xlink:href="#I" transform="matrix(1,0,0,1,1372,652) translate(82.19753086419755 53.44444444444445)"/><use xlink:href="#J" transform="matrix(1,0,0,1,1372,652) translate(21.796296296296298 80.11111111111111)"/><path d="M1435.2 463.6c2.65-2 6.95-2 9.6 0l70.4 52.8c2.65 2 2.65 5.2 0 7.2l-70.4 52.8c-2.65 2-6.95 2-9.6 0l-70.4-52.8c-2.65-2-2.65-5.2 0-7.2z" stroke="#5e5e5e" stroke-width="3" fill="#fff"/><use xlink:href="#u" transform="matrix(1,0,0,1,1365,465) translate(46.5512962962963 50.25694444444444)"/><use xlink:href="#K" transform="matrix(1,0,0,1,1365,465) translate(62.97104938271605 50.25694444444444)"/><use xlink:href="#L" transform="matrix(1,0,0,1,1365,465) translate(44.3691975308642 68.92361111111111)"/><path d="M1440 817.5V780" stroke="#5e5e5e" stroke-width="2" fill="none"/><path d="M1441 818.5h-2v-1.03h2" fill="#5e5e5e"/><path d="M1440 764.74l4.64 14.26h-9.28z" stroke="#5e5e5e" stroke-width="2" fill="#5e5e5e"/><path d="M1440 637.5v-39.67" stroke="#5e5e5e" stroke-width="2" fill="none"/><path d="M1441 638.5h-2v-1.03h2" fill="#5e5e5e"/><path d="M1440 582.57l4.64 14.26h-9.28z" stroke="#5e5e5e" stroke-width="2" fill="#5e5e5e"/><path d="M1131 674.13l-.92 3.42-2.53 2.53-3.42.92H917.1v-2h206.77l2.64-.7 1.8-1.8.7-2.63v-63.2h2M1360.4 521h-224.27l-2.64.7-1.8 1.8-.7 2.63v63.2h-2v-63.46l.92-3.42 2.53-2.53 3.42-.92h224.52" fill="#5e5e5e"/><path d="M1361.28 519.4l.28 1.6h-1.2v-2h1.1M916.1 684.64L901.86 680l14.26-4.64z" fill="#5e5e5e"/><path d="M917.1 686l-18.5-6 18.5-6m-12.02 6l10.03 3.26v-6.52" fill="#5e5e5e"/><use xlink:href="#A" transform="matrix(1,0,0,1,1114.6913580246915,589.3333333333334) translate(0 14.222222222222223)"/><path d="M868 1220c17.67 0 32 17.9 32 40s-14.33 40-32 40h-96c-17.67 0-32-17.9-32-40s14.33-40 32-40z" stroke="#5e5e5e" stroke-width="3" fill="#fff"/><use xlink:href="#M" transform="matrix(1,0,0,1,745,1225) translate(52.160493827160494 39.65277777777778)"/><path d="M535.2 823.6c2.65-2 6.95-2 9.6 0l70.4 52.8c2.65 2 2.65 5.2 0 7.2l-70.4 52.8c-2.65 2-6.95 2-9.6 0l-70.4-52.8c-2.65-2-2.65-5.2 0-7.2z" stroke="#5e5e5e" stroke-width="3" fill="#fff"/><use xlink:href="#C" transform="matrix(1,0,0,1,465,825) translate(22.764259259259273 50.25694444444444)"/><use xlink:href="#D" transform="matrix(1,0,0,1,465,825) translate(51.23956790123458 50.25694444444444)"/><use xlink:href="#E" transform="matrix(1,0,0,1,465,825) translate(82.35067901234568 50.25694444444444)"/><use xlink:href="#l" transform="matrix(1,0,0,1,465,825) translate(49.53277777777778 68.92361111111111)"/><path d="M540 742.5v59.67" stroke="#5e5e5e" stroke-width="2" fill="none"/><path d="M541 742.53h-2v-1.03h2" fill="#5e5e5e"/><path d="M540 817.43l-4.64-14.26h9.28z" stroke="#5e5e5e" stroke-width="2" fill="#5e5e5e"/><path d="M434.05 578.33h-6.53l-2.64.72-1.78 1.77-.7 2.65v290.4l.7 2.64 1.78 1.8 2.64.7h32.87v2h-33.14l-3.42-.92-2.53-2.53-.9-3.42V583.2l.9-3.4 2.54-2.54 3.42-.93h6.8m367.44 2H464.67v-2H801.5" fill="#5e5e5e"/><path d="M461.28 879.4l.28 1.6h-1.2v-2h1.1M816.76 577.33l-14.26 4.64v-9.27z" fill="#5e5e5e"/><path d="M820 577.33l-18.5 6.02v-12.03m2 9.27l10.03-3.27-10.03-3.26" fill="#5e5e5e"/><use xlink:href="#A" transform="matrix(1,0,0,1,434.05246217156434,566.6666666666667) translate(0 14.222222222222223)"/><path d="M255.2 243.6c2.65-2 6.95-2 9.6 0l70.4 52.8c2.65 2 2.65 5.2 0 7.2l-70.4 52.8c-2.65 2-6.95 2-9.6 0l-70.4-52.8c-2.65-2-2.65-5.2 0-7.2z" stroke="#5e5e5e" stroke-width="3" fill="#fff"/><use xlink:href="#u" transform="matrix(1,0,0,1,185,245) translate(41.32290123456791 39.94444444444444)"/><use xlink:href="#N" transform="matrix(1,0,0,1,185,245) translate(57.74265432098766 39.94444444444444)"/><use xlink:href="#O" transform="matrix(1,0,0,1,185,245) translate(96.63154320987653 39.94444444444444)"/><use xlink:href="#P" transform="matrix(1,0,0,1,185,245) translate(33.56672839506174 58.61111111111111)"/><use xlink:href="#k" transform="matrix(1,0,0,1,185,245) translate(90.51734567901235 58.61111111111111)"/><use xlink:href="#l" transform="matrix(1,0,0,1,185,245) translate(49.53277777777778 77.27777777777777)"/><path d="M460 246c0-3.3 2.7-6 6-6h148c3.3 0 6 2.7 6 6v108c0 3.3-2.7 6-6 6H466c-3.3 0-6-2.7-6-6z" stroke="#5e5e5e" stroke-width="3" fill="#fff"/><use xlink:href="#Q" transform="matrix(1,0,0,1,472,252) translate(24.23456790123457 26.77777777777778)"/><use xlink:href="#R" transform="matrix(1,0,0,1,472,252) translate(63.617283950617285 26.77777777777778)"/><use xlink:href="#S" transform="matrix(1,0,0,1,472,252) translate(22.969135802469133 53.44444444444445)"/><use xlink:href="#T" transform="matrix(1,0,0,1,472,252) translate(78.52469135802468 53.44444444444445)"/><use xlink:href="#U" transform="matrix(1,0,0,1,472,252) translate(38.98765432098765 80.11111111111111)"/><path d="M739.2 300H640" stroke="#5e5e5e" stroke-width="2" fill="none"/><path d="M740.15 299.48l.14 1.52h-1.13v-2h1.06" fill="#5e5e5e"/><path d="M624.74 300l14.26-4.64v9.28z" stroke="#5e5e5e" stroke-width="2" fill="#5e5e5e"/><path d="M457.5 300H357.1" stroke="#5e5e5e" stroke-width="2" fill="none"/><path d="M458.5 301h-1.03v-2h1.03" fill="#5e5e5e"/><path d="M341.85 300l14.26-4.64v9.28z" stroke="#5e5e5e" stroke-width="2" fill="#5e5e5e"/><path d="M261 473.87l.7 2.64 1.8 1.8 2.63.7H423.6v2H265.88l-3.42-.92-2.53-2.53-.92-3.42v-113.8h2M720 479v2H454.22v-2" fill="#5e5e5e"/><path d="M261 359.35v1h-2v-1.04M735.26 480L721 484.64v-9.28z" fill="#5e5e5e"/><path d="M738.5 480l-18.5 6v-12m2 9.26l10.03-3.26-10.03-3.26" fill="#5e5e5e"/><g><use xlink:href="#A" transform="matrix(1,0,0,1,423.60607400656374,469.3333333333333) translate(0 14.222222222222223)"/></g><path d="M80 986c0-3.3 2.7-6 6-6h148c3.3 0 6 2.7 6 6v108c0 3.3-2.7 6-6 6H86c-3.3 0-6-2.7-6-6z" stroke="#5e5e5e" stroke-width="3" fill="#fff"/><g><use xlink:href="#V" transform="matrix(1,0,0,1,92,992) translate(0.808641975308646 26.77777777777778)"/><use xlink:href="#W" transform="matrix(1,0,0,1,92,992) translate(52.53703703703704 26.77777777777778)"/><use xlink:href="#X" transform="matrix(1,0,0,1,92,992) translate(1.4567901234567842 53.44444444444445)"/><use xlink:href="#Y" transform="matrix(1,0,0,1,92,992) translate(90.22222222222221 53.44444444444445)"/><use xlink:href="#c" transform="matrix(1,0,0,1,92,992) translate(29.790123456790127 80.11111111111111)"/></g><path d="M161 960h-2V639.22h2M180.4 301h-14.27l-2.64.7-1.8 1.8-.7 2.63V617.9h-2V305.86l.92-3.42 2.53-2.53 3.42-.92h14.52" fill="#5e5e5e"/><path d="M181.28 299.4l.28 1.6h-1.2v-2h1.1M160 975.26L155.36 961h9.28z" fill="#5e5e5e"/><path d="M160 978.5l-6-18.5h12m-9.26 2l3.26 10.03 3.26-10.03" fill="#5e5e5e"/><g><use xlink:href="#B" transform="matrix(1,0,0,1,148.19753086419752,617.8888958531271) translate(0 14.222222222222223)"/></g><path d="M161 1253.87l.7 2.64 1.8 1.8 2.63.7H720v2H165.87l-3.42-.92-2.53-2.53-.92-3.42V1102.5h2" fill="#5e5e5e"/><path d="M161 1102.53h-2v-1.03h2M735.26 1260l-14.26 4.64v-9.28z" fill="#5e5e5e"/><path d="M738.5 1260l-18.5 6v-12m2 9.26l10.03-3.26-10.03-3.26M429.28 1041H260v-2h169.28m111.72-4.87l-.92 3.42-2.53 2.53-3.42.92H452.9v-2h80.97l2.64-.7 1.8-1.8.7-2.63v-93.54h2" fill="#5e5e5e"/><path d="M541 939.35v1h-2v-1.04M259 1044.64l-14.26-4.64 14.26-4.64z" fill="#5e5e5e"/><path d="M260 1046l-18.5-6 18.5-6m-12.03 6l10.03 3.26v-6.52" fill="#5e5e5e"/><g><use xlink:href="#B" transform="matrix(1,0,0,1,429.2828148823251,1029.3333333333333) translate(0 14.222222222222223)"/></g><path d="M279.05 1039.92l2.53 2.53.92 3.42v87.33l.7 2.64 1.8 1.77 2.63.73h361.65v2h-361.9l-3.43-.92-2.53-2.52-.92-3.42v-87.33l-.7-2.64-1.8-1.8-2.63-.7H260v-2h15.63m865.37 94.46l-.92 3.42-2.53 2.53-3.42.93H672.9v-2h460.97l2.64-.72 1.8-1.76.7-2.64v-32.87h2M1141 1099.35v1h-2v-1.04M259 1044.64l-14.26-4.64 14.26-4.64z" fill="#5e5e5e"/><path d="M260 1046l-18.5-6 18.5-6m-12.03 6l10.03 3.26v-6.52" fill="#5e5e5e"/><g><use xlink:href="#B" transform="matrix(1,0,0,1,649.2828148823252,1128.662765297078) translate(0 14.222222222222223)"/></g><path d="M1047.84 421.67h-103.1l-2.64.72-1.77 1.76-.72 2.64v247.33l-.9 3.42-2.54 2.53-3.42.92H917.1v-2h15.38l2.64-.7 1.78-1.8.7-2.63V426.54l.93-3.42 2.53-2.53 3.42-.93h103.36m389.7.92l2.54 2.52.92 3.42v33.13h-2V426.8l-.7-2.64-1.8-1.77-2.63-.73h-362.43v-2h362.7" fill="#5e5e5e"/><path d="M1441 460.7l-2-.05v-1h2M916.1 684.64L901.86 680l14.26-4.64z" fill="#5e5e5e"/><path d="M917.1 686l-18.5-6 18.5-6m-12.02 6l10.03 3.26v-6.52" fill="#5e5e5e"/><g><use xlink:href="#B" transform="matrix(1,0,0,1,1047.8383774021188,410.0039013695885) translate(0 14.222222222222223)"/></g><defs><path fill="#333" d="M185-189c-5-48-123-54-124 2 14 75 158 14 163 119 3 78-121 87-175 55-17-10-28-26-33-46l33-7c5 56 141 63 141-1 0-78-155-14-162-118-5-82 145-84 179-34 5 7 8 16 11 25" id="Z"/><path fill="#333" d="M59-47c-2 24 18 29 38 22v24C64 9 27 4 27-40v-127H5v-23h24l9-43h21v43h35v23H59v120" id="aa"/><path fill="#333" d="M141-36C126-15 110 5 73 4 37 3 15-17 15-53c-1-64 63-63 125-63 3-35-9-54-41-54-24 1-41 7-42 31l-33-3c5-37 33-52 76-52 45 0 72 20 72 64v82c-1 20 7 32 28 27v20c-31 9-61-2-59-35zM48-53c0 20 12 33 32 33 41-3 63-29 60-74-43 2-92-5-92 41" id="ab"/><path fill="#333" d="M114-163C36-179 61-72 57 0H25l-1-190h30c1 12-1 29 2 39 6-27 23-49 58-41v29" id="ac"/><g id="a"><use transform="matrix(0.06172839506172839,0,0,0.06172839506172839,0,0)" xlink:href="#Z"/><use transform="matrix(0.06172839506172839,0,0,0.06172839506172839,14.814814814814813,0)" xlink:href="#aa"/><use transform="matrix(0.06172839506172839,0,0,0.06172839506172839,20.98765432098765,0)" xlink:href="#ab"/><use transform="matrix(0.06172839506172839,0,0,0.06172839506172839,33.33333333333333,0)" xlink:href="#ac"/><use transform="matrix(0.06172839506172839,0,0,0.06172839506172839,40.679012345679006,0)" xlink:href="#aa"/></g><g id="b"><use transform="matrix(0.06172839506172839,0,0,0.06172839506172839,0,0)" xlink:href="#Z"/><use transform="matrix(0.06172839506172839,0,0,0.06172839506172839,14.814814814814813,0)" xlink:href="#aa"/><use transform="matrix(0.06172839506172839,0,0,0.06172839506172839,20.98765432098765,0)" xlink:href="#ab"/><use transform="matrix(0.06172839506172839,0,0,0.06172839506172839,33.33333333333333,0)" xlink:href="#ac"/><use transform="matrix(0.06172839506172839,0,0,0.06172839506172839,40.679012345679006,0)" xlink:href="#aa"/></g><path fill="#333" d="M30-248c87 1 191-15 191 75 0 78-77 80-158 76V0H30v-248zm33 125c57 0 124 11 124-50 0-59-68-47-124-48v98" id="ad"/><path fill="#333" d="M30 0v-248h187v28H63v79h144v27H63v87h162V0H30" id="ae"/><path fill="#333" d="M197 0v-115H63V0H30v-248h33v105h134v-105h34V0h-34" id="af"/><path fill="#333" d="M233-177c-1 41-23 64-60 70L243 0h-38l-65-103H63V0H30v-248c88 3 205-21 203 71zM63-129c60-2 137 13 137-47 0-61-80-42-137-45v92" id="ag"/><path fill="#333" d="M205 0l-28-72H64L36 0H1l101-248h38L239 0h-34zm-38-99l-47-123c-12 45-31 82-46 123h93" id="ah"/><g id="c"><use transform="matrix(0.06172839506172839,0,0,0.06172839506172839,0,0)" xlink:href="#ad"/><use transform="matrix(0.06172839506172839,0,0,0.06172839506172839,14.814814814814813,0)" xlink:href="#ae"/><use transform="matrix(0.06172839506172839,0,0,0.06172839506172839,29.629629629629626,0)" xlink:href="#af"/><use transform="matrix(0.06172839506172839,0,0,0.06172839506172839,45.61728395061728,0)" xlink:href="#ag"/><use transform="matrix(0.06172839506172839,0,0,0.06172839506172839,61.60493827160493,0)" xlink:href="#ah"/></g><path fill="#333" d="M117-194c89-4 53 116 60 194h-32v-121c0-31-8-49-39-48C34-167 62-67 57 0H25l-1-190h30c1 10-1 24 2 32 11-22 29-35 61-36" id="ai"/><path fill="#333" d="M115-194c53 0 69 39 70 98 0 66-23 100-70 100C84 3 66-7 56-30L54 0H23l1-261h32v101c10-23 28-34 59-34zm-8 174c40 0 45-34 45-75 0-40-5-75-45-74-42 0-51 32-51 76 0 43 10 73 51 73" id="aj"/><path fill="#333" d="M24 0v-261h32V0H24" id="ak"/><path fill="#333" d="M100-194c63 0 86 42 84 106H49c0 40 14 67 53 68 26 1 43-12 49-29l28 8c-11 28-37 45-77 45C44 4 14-33 15-96c1-61 26-98 85-98zm52 81c6-60-76-77-97-28-3 7-6 17-6 28h103" id="al"/><g id="d"><use transform="matrix(0.06172839506172839,0,0,0.06172839506172839,0,0)" xlink:href="#ae"/><use transform="matrix(0.06172839506172839,0,0,0.06172839506172839,14.814814814814813,0)" xlink:href="#ai"/><use transform="matrix(0.06172839506172839,0,0,0.06172839506172839,27.160493827160494,0)" xlink:href="#ab"/><use transform="matrix(0.06172839506172839,0,0,0.06172839506172839,39.50617283950617,0)" xlink:href="#aj"/><use transform="matrix(0.06172839506172839,0,0,0.06172839506172839,51.85185185185185,0)" xlink:href="#ak"/><use transform="matrix(0.06172839506172839,0,0,0.06172839506172839,56.72839506172839,0)" xlink:href="#al"/></g><g id="e"><use transform="matrix(0.06172839506172839,0,0,0.06172839506172839,0,0)" xlink:href="#ad"/><use transform="matrix(0.06172839506172839,0,0,0.06172839506172839,14.814814814814813,0)" xlink:href="#ae"/><use transform="matrix(0.06172839506172839,0,0,0.06172839506172839,29.629629629629626,0)" xlink:href="#af"/><use transform="matrix(0.06172839506172839,0,0,0.06172839506172839,45.61728395061728,0)" xlink:href="#ag"/><use transform="matrix(0.06172839506172839,0,0,0.06172839506172839,61.60493827160493,0)" xlink:href="#ah"/></g><path fill="#333" d="M140-251c81 0 123 46 123 126C263-46 219 4 140 4 59 4 17-45 17-125s42-126 123-126zm0 227c63 0 89-41 89-101s-29-99-89-99c-61 0-89 39-89 99S79-25 140-24" id="am"/><g id="f"><use transform="matrix(0.06172839506172839,0,0,0.06172839506172839,0,0)" xlink:href="#am"/><use transform="matrix(0.06172839506172839,0,0,0.06172839506172839,17.28395061728395,0)" xlink:href="#ai"/></g><path fill="#333" d="M190 0L58-211 59 0H30v-248h39L202-35l-2-213h31V0h-41" id="an"/><path fill="#333" d="M100-194c62-1 85 37 85 99 1 63-27 99-86 99S16-35 15-95c0-66 28-99 85-99zM99-20c44 1 53-31 53-75 0-43-8-75-51-75s-53 32-53 75 10 74 51 75" id="ao"/><path fill="#333" d="M85-194c31 0 48 13 60 33l-1-100h32l1 261h-30c-2-10 0-23-3-31C134-8 116 4 85 4 32 4 16-35 15-94c0-66 23-100 70-100zm9 24c-40 0-46 34-46 75 0 40 6 74 45 74 42 0 51-32 51-76 0-42-9-74-50-73" id="ap"/><path fill="#333" d="M135-143c-3-34-86-38-87 0 15 53 115 12 119 90S17 21 10-45l28-5c4 36 97 45 98 0-10-56-113-15-118-90-4-57 82-63 122-42 12 7 21 19 24 35" id="aq"/><g id="g"><use transform="matrix(0.06172839506172839,0,0,0.06172839506172839,0,0)" xlink:href="#an"/><use transform="matrix(0.06172839506172839,0,0,0.06172839506172839,15.987654320987653,0)" xlink:href="#ao"/><use transform="matrix(0.06172839506172839,0,0,0.06172839506172839,28.333333333333332,0)" xlink:href="#ap"/><use transform="matrix(0.06172839506172839,0,0,0.06172839506172839,40.67901234567901,0)" xlink:href="#al"/><use transform="matrix(0.06172839506172839,0,0,0.06172839506172839,53.02469135802469,0)" xlink:href="#aq"/></g><path fill="#333" d="M33 0v-248h34V0H33" id="ar"/><g id="h"><use transform="matrix(0.04320987654320987,0,0,0.04320987654320987,0,0)" xlink:href="#ar"/><use transform="matrix(0.04320987654320987,0,0,0.04320987654320987,4.320987654320986,0)" xlink:href="#aq"/></g><path fill="#333" d="M106-169C34-169 62-67 57 0H25v-261h32l-1 103c12-21 28-36 61-36 89 0 53 116 60 194h-32v-121c2-32-8-49-39-48" id="as"/><g id="i"><use transform="matrix(0.04320987654320987,0,0,0.04320987654320987,0,0)" xlink:href="#ad"/><use transform="matrix(0.04320987654320987,0,0,0.04320987654320987,10.370370370370368,0)" xlink:href="#al"/><use transform="matrix(0.04320987654320987,0,0,0.04320987654320987,19.01234567901234,0)" xlink:href="#as"/><use transform="matrix(0.04320987654320987,0,0,0.04320987654320987,27.654320987654316,0)" xlink:href="#ac"/><use transform="matrix(0.04320987654320987,0,0,0.04320987654320987,32.79629629629629,0)" xlink:href="#al"/><use transform="matrix(0.04320987654320987,0,0,0.04320987654320987,41.438271604938265,0)" xlink:href="#ap"/><use transform="matrix(0.04320987654320987,0,0,0.04320987654320987,50.08024691358023,0)" xlink:href="#ab"/><use transform="matrix(0.04320987654320987,0,0,0.04320987654320987,58.72222222222221,0)" xlink:href="#ac"/></g><path fill="#333" d="M96-169c-40 0-48 33-48 73s9 75 48 75c24 0 41-14 43-38l32 2c-6 37-31 61-74 61-59 0-76-41-82-99-10-93 101-131 147-64 4 7 5 14 7 22l-32 3c-4-21-16-35-41-35" id="at"/><g id="j"><use transform="matrix(0.04320987654320987,0,0,0.04320987654320987,0,0)" xlink:href="#ae"/><use transform="matrix(0.04320987654320987,0,0,0.04320987654320987,10.370370370370368,0)" xlink:href="#ak"/><use transform="matrix(0.04320987654320987,0,0,0.04320987654320987,13.783950617283947,0)" xlink:href="#al"/><use transform="matrix(0.04320987654320987,0,0,0.04320987654320987,22.42592592592592,0)" xlink:href="#at"/><use transform="matrix(0.04320987654320987,0,0,0.04320987654320987,30.2037037037037,0)" xlink:href="#aa"/><use transform="matrix(0.04320987654320987,0,0,0.04320987654320987,34.52469135802468,0)" xlink:href="#al"/><use transform="matrix(0.04320987654320987,0,0,0.04320987654320987,43.16666666666666,0)" xlink:href="#ap"/></g><g id="k"><use transform="matrix(0.04320987654320987,0,0,0.04320987654320987,0,0)" xlink:href="#ab"/><use transform="matrix(0.04320987654320987,0,0,0.04320987654320987,8.641975308641973,0)" xlink:href="#ai"/><use transform="matrix(0.04320987654320987,0,0,0.04320987654320987,17.283950617283946,0)" xlink:href="#ap"/></g><path fill="#333" d="M24-231v-30h32v30H24zM24 0v-190h32V0H24" id="au"/><path fill="#333" d="M108 0H70L1-190h34L89-25l56-165h34" id="av"/><path fill="#333" d="M103-251c84 0 111 97 45 133-19 10-37 24-39 52H78c0-63 77-55 77-114 0-30-21-42-52-43-32 0-53 17-56 46l-32-2c7-45 34-72 88-72zM77 0v-35h34V0H77" id="aw"/><g id="l"><use transform="matrix(0.04320987654320987,0,0,0.04320987654320987,0,0)" xlink:href="#ah"/><use transform="matrix(0.04320987654320987,0,0,0.04320987654320987,10.370370370370368,0)" xlink:href="#at"/><use transform="matrix(0.04320987654320987,0,0,0.04320987654320987,18.148148148148145,0)" xlink:href="#aa"/><use transform="matrix(0.04320987654320987,0,0,0.04320987654320987,22.469135802469133,0)" xlink:href="#au"/><use transform="matrix(0.04320987654320987,0,0,0.04320987654320987,25.88271604938271,0)" xlink:href="#av"/><use transform="matrix(0.04320987654320987,0,0,0.04320987654320987,33.66049382716049,0)" xlink:href="#al"/><use transform="matrix(0.04320987654320987,0,0,0.04320987654320987,42.30246913580246,0)" xlink:href="#aw"/></g><path fill="#333" d="M266 0h-40l-56-210L115 0H75L2-248h35L96-30l15-64 43-154h32l59 218 59-218h35" id="ax"/><path fill="#333" d="M143 0L79-87 56-68V0H24v-261h32v163l83-92h37l-77 82L181 0h-38" id="ay"/><g id="m"><use transform="matrix(0.06172839506172839,0,0,0.06172839506172839,0,0)" xlink:href="#ax"/><use transform="matrix(0.06172839506172839,0,0,0.06172839506172839,20.123456790123456,0)" xlink:href="#ab"/><use transform="matrix(0.06172839506172839,0,0,0.06172839506172839,32.46913580246913,0)" xlink:href="#ay"/><use transform="matrix(0.06172839506172839,0,0,0.06172839506172839,43.58024691358024,0)" xlink:href="#al"/></g><path fill="#333" d="M232-93c-1 65-40 97-104 97C67 4 28-28 28-90v-158h33c8 89-33 224 67 224 102 0 64-133 71-224h33v155" id="az"/><path fill="#333" d="M115-194c55 1 70 41 70 98S169 2 115 4C84 4 66-9 55-30l1 105H24l-1-265h31l2 30c10-21 28-34 59-34zm-8 174c40 0 45-34 45-75s-6-73-45-74c-42 0-51 32-51 76 0 43 10 73 51 73" id="aA"/><g id="n"><use transform="matrix(0.06172839506172839,0,0,0.06172839506172839,0,0)" xlink:href="#az"/><use transform="matrix(0.06172839506172839,0,0,0.06172839506172839,15.987654320987653,0)" xlink:href="#aA"/></g><g id="o"><use transform="matrix(0.06172839506172839,0,0,0.06172839506172839,0,0)" xlink:href="#ah"/><use transform="matrix(0.06172839506172839,0,0,0.06172839506172839,14.814814814814813,0)" xlink:href="#ak"/><use transform="matrix(0.06172839506172839,0,0,0.06172839506172839,19.691358024691354,0)" xlink:href="#ak"/></g><g id="p"><use transform="matrix(0.06172839506172839,0,0,0.06172839506172839,0,0)" xlink:href="#an"/><use transform="matrix(0.06172839506172839,0,0,0.06172839506172839,15.987654320987653,0)" xlink:href="#ao"/><use transform="matrix(0.06172839506172839,0,0,0.06172839506172839,28.333333333333332,0)" xlink:href="#ap"/><use transform="matrix(0.06172839506172839,0,0,0.06172839506172839,40.67901234567901,0)" xlink:href="#al"/><use transform="matrix(0.06172839506172839,0,0,0.06172839506172839,53.02469135802469,0)" xlink:href="#aq"/></g><g id="q"><use transform="matrix(0.06172839506172839,0,0,0.06172839506172839,0,0)" xlink:href="#au"/><use transform="matrix(0.06172839506172839,0,0,0.06172839506172839,4.876543209876543,0)" xlink:href="#ai"/></g><g id="r"><use transform="matrix(0.06172839506172839,0,0,0.06172839506172839,0,0)" xlink:href="#ae"/><use transform="matrix(0.06172839506172839,0,0,0.06172839506172839,14.814814814814813,0)" xlink:href="#ak"/><use transform="matrix(0.06172839506172839,0,0,0.06172839506172839,19.691358024691354,0)" xlink:href="#al"/><use transform="matrix(0.06172839506172839,0,0,0.06172839506172839,32.03703703703703,0)" xlink:href="#at"/><use transform="matrix(0.06172839506172839,0,0,0.06172839506172839,43.14814814814814,0)" xlink:href="#aa"/></g><g id="s"><use transform="matrix(0.06172839506172839,0,0,0.06172839506172839,0,0)" xlink:href="#ad"/><use transform="matrix(0.06172839506172839,0,0,0.06172839506172839,14.814814814814813,0)" xlink:href="#al"/><use transform="matrix(0.06172839506172839,0,0,0.06172839506172839,27.160493827160494,0)" xlink:href="#as"/><use transform="matrix(0.06172839506172839,0,0,0.06172839506172839,39.50617283950617,0)" xlink:href="#ac"/><use transform="matrix(0.06172839506172839,0,0,0.06172839506172839,46.85185185185185,0)" xlink:href="#al"/><use transform="matrix(0.06172839506172839,0,0,0.06172839506172839,59.197530864197525,0)" xlink:href="#ap"/><use transform="matrix(0.06172839506172839,0,0,0.06172839506172839,71.5432098765432,0)" xlink:href="#ab"/><use transform="matrix(0.06172839506172839,0,0,0.06172839506172839,83.88888888888889,0)" xlink:href="#ac"/></g><g id="t"><use transform="matrix(0.06172839506172839,0,0,0.06172839506172839,0,0)" xlink:href="#an"/><use transform="matrix(0.06172839506172839,0,0,0.06172839506172839,15.987654320987653,0)" xlink:href="#ao"/><use transform="matrix(0.06172839506172839,0,0,0.06172839506172839,28.333333333333332,0)" xlink:href="#ap"/><use transform="matrix(0.06172839506172839,0,0,0.06172839506172839,40.67901234567901,0)" xlink:href="#al"/></g><g id="u"><use transform="matrix(0.04320987654320987,0,0,0.04320987654320987,0,0)" xlink:href="#ar"/><use transform="matrix(0.04320987654320987,0,0,0.04320987654320987,4.320987654320986,0)" xlink:href="#aq"/></g><path fill="#333" d="M101-234c-31-9-42 10-38 44h38v23H63V0H32v-167H5v-23h27c-7-52 17-82 69-68v24" id="aB"/><g id="v"><use transform="matrix(0.04320987654320987,0,0,0.04320987654320987,0,0)" xlink:href="#aa"/><use transform="matrix(0.04320987654320987,0,0,0.04320987654320987,4.320987654320986,0)" xlink:href="#ac"/><use transform="matrix(0.04320987654320987,0,0,0.04320987654320987,9.462962962962962,0)" xlink:href="#ab"/><use transform="matrix(0.04320987654320987,0,0,0.04320987654320987,18.104938271604937,0)" xlink:href="#aB"/><use transform="matrix(0.04320987654320987,0,0,0.04320987654320987,22.123456790123456,0)" xlink:href="#aB"/><use transform="matrix(0.04320987654320987,0,0,0.04320987654320987,26.444444444444443,0)" xlink:href="#au"/><use transform="matrix(0.04320987654320987,0,0,0.04320987654320987,29.858024691358022,0)" xlink:href="#at"/><use transform="matrix(0.04320987654320987,0,0,0.04320987654320987,37.6358024691358,0)" xlink:href="#aw"/></g><path fill="#333" d="M206 0h-36l-40-164L89 0H53L-1-190h32L70-26l43-164h34l41 164 42-164h31" id="aC"/><g id="w"><use transform="matrix(0.06172839506172839,0,0,0.06172839506172839,0,0)" xlink:href="#ah"/><use transform="matrix(0.06172839506172839,0,0,0.06172839506172839,14.814814814814813,0)" xlink:href="#ak"/><use transform="matrix(0.06172839506172839,0,0,0.06172839506172839,19.691358024691354,0)" xlink:href="#ak"/><use transform="matrix(0.06172839506172839,0,0,0.06172839506172839,24.5679012345679,0)" xlink:href="#ao"/><use transform="matrix(0.06172839506172839,0,0,0.06172839506172839,36.913580246913575,0)" xlink:href="#aC"/></g><g id="x"><use transform="matrix(0.06172839506172839,0,0,0.06172839506172839,0,0)" xlink:href="#am"/><use transform="matrix(0.06172839506172839,0,0,0.06172839506172839,17.28395061728395,0)" xlink:href="#aa"/><use transform="matrix(0.06172839506172839,0,0,0.06172839506172839,23.456790123456788,0)" xlink:href="#as"/><use transform="matrix(0.06172839506172839,0,0,0.06172839506172839,35.80246913580247,0)" xlink:href="#al"/><use transform="matrix(0.06172839506172839,0,0,0.06172839506172839,48.148148148148145,0)" xlink:href="#ac"/></g><g id="y"><use transform="matrix(0.06172839506172839,0,0,0.06172839506172839,0,0)" xlink:href="#aa"/><use transform="matrix(0.06172839506172839,0,0,0.06172839506172839,6.172839506172839,0)" xlink:href="#ao"/></g><g id="z"><use transform="matrix(0.06172839506172839,0,0,0.06172839506172839,0,0)" xlink:href="#Z"/><use transform="matrix(0.06172839506172839,0,0,0.06172839506172839,14.814814814814813,0)" xlink:href="#ak"/><use transform="matrix(0.06172839506172839,0,0,0.06172839506172839,19.691358024691354,0)" xlink:href="#al"/><use transform="matrix(0.06172839506172839,0,0,0.06172839506172839,32.03703703703703,0)" xlink:href="#al"/><use transform="matrix(0.06172839506172839,0,0,0.06172839506172839,44.38271604938271,0)" xlink:href="#aA"/></g><path fill="#333" d="M146-102V0H94v-102L6-248h54l60 105 60-105h54" id="aD"/><path fill="#333" d="M185-48c-13 30-37 53-82 52C43 2 14-33 14-96s30-98 90-98c62 0 83 45 84 108H66c0 31 8 55 39 56 18 0 30-7 34-22zm-45-69c5-46-57-63-70-21-2 6-4 13-4 21h74" id="aE"/><path fill="#333" d="M137-138c1-29-70-34-71-4 15 46 118 7 119 86 1 83-164 76-172 9l43-7c4 19 20 25 44 25 33 8 57-30 24-41C81-84 22-81 20-136c-2-80 154-74 161-7" id="aF"/><g id="A"><use transform="matrix(0.04938271604938272,0,0,0.04938271604938272,0,0)" xlink:href="#aD"/><use transform="matrix(0.04938271604938272,0,0,0.04938271604938272,10.864197530864198,0)" xlink:href="#aE"/><use transform="matrix(0.04938271604938272,0,0,0.04938271604938272,20.74074074074074,0)" xlink:href="#aF"/></g><path fill="#333" d="M175 0L67-191c6 58 2 128 3 191H24v-248h59L193-55c-6-58-2-129-3-193h46V0h-61" id="aG"/><path fill="#333" d="M110-194c64 0 96 36 96 99 0 64-35 99-97 99-61 0-95-36-95-99 0-62 34-99 96-99zm-1 164c35 0 45-28 45-65 0-40-10-65-43-65-34 0-45 26-45 65 0 36 10 65 43 65" id="aH"/><g id="B"><use transform="matrix(0.04938271604938272,0,0,0.04938271604938272,0,0)" xlink:href="#aG"/><use transform="matrix(0.04938271604938272,0,0,0.04938271604938272,12.790123456790125,0)" xlink:href="#aH"/></g><g id="C"><use transform="matrix(0.04320987654320987,0,0,0.04320987654320987,0,0)" xlink:href="#ah"/><use transform="matrix(0.04320987654320987,0,0,0.04320987654320987,10.370370370370368,0)" xlink:href="#ac"/><use transform="matrix(0.04320987654320987,0,0,0.04320987654320987,15.512345679012343,0)" xlink:href="#al"/></g><path fill="#333" d="M179-190L93 31C79 59 56 82 12 73V49c39 6 53-20 64-50L1-190h34L92-34l54-156h33" id="aI"/><g id="D"><use transform="matrix(0.04320987654320987,0,0,0.04320987654320987,0,0)" xlink:href="#ah"/><use transform="matrix(0.04320987654320987,0,0,0.04320987654320987,10.370370370370368,0)" xlink:href="#ai"/><use transform="matrix(0.04320987654320987,0,0,0.04320987654320987,19.01234567901234,0)" xlink:href="#aI"/></g><g id="E"><use transform="matrix(0.04320987654320987,0,0,0.04320987654320987,0,0)" xlink:href="#an"/><use transform="matrix(0.04320987654320987,0,0,0.04320987654320987,11.191358024691356,0)" xlink:href="#ao"/><use transform="matrix(0.04320987654320987,0,0,0.04320987654320987,19.83333333333333,0)" xlink:href="#ap"/><use transform="matrix(0.04320987654320987,0,0,0.04320987654320987,28.475308641975303,0)" xlink:href="#al"/><use transform="matrix(0.04320987654320987,0,0,0.04320987654320987,37.11728395061728,0)" xlink:href="#aq"/></g><g id="F"><use transform="matrix(0.06172839506172839,0,0,0.06172839506172839,0,0)" xlink:href="#Z"/><use transform="matrix(0.06172839506172839,0,0,0.06172839506172839,14.814814814814813,0)" xlink:href="#aa"/><use transform="matrix(0.06172839506172839,0,0,0.06172839506172839,20.98765432098765,0)" xlink:href="#ab"/><use transform="matrix(0.06172839506172839,0,0,0.06172839506172839,33.33333333333333,0)" xlink:href="#ac"/><use transform="matrix(0.06172839506172839,0,0,0.06172839506172839,40.679012345679006,0)" xlink:href="#aa"/></g><path fill="#333" d="M210-169c-67 3-38 105-44 169h-31v-121c0-29-5-50-35-48C34-165 62-65 56 0H25l-1-190h30c1 10-1 24 2 32 10-44 99-50 107 0 11-21 27-35 58-36 85-2 47 119 55 194h-31v-121c0-29-5-49-35-48" id="aJ"/><g id="G"><use transform="matrix(0.06172839506172839,0,0,0.06172839506172839,0,0)" xlink:href="#ah"/><use transform="matrix(0.06172839506172839,0,0,0.06172839506172839,14.814814814814813,0)" xlink:href="#ak"/><use transform="matrix(0.06172839506172839,0,0,0.06172839506172839,19.691358024691354,0)" xlink:href="#ab"/><use transform="matrix(0.06172839506172839,0,0,0.06172839506172839,32.03703703703703,0)" xlink:href="#ac"/><use transform="matrix(0.06172839506172839,0,0,0.06172839506172839,39.38271604938271,0)" xlink:href="#aJ"/></g><path fill="#333" d="M212-179c-10-28-35-45-73-45-59 0-87 40-87 99 0 60 29 101 89 101 43 0 62-24 78-52l27 14C228-24 195 4 139 4 59 4 22-46 18-125c-6-104 99-153 187-111 19 9 31 26 39 46" id="aK"/><g id="H"><use transform="matrix(0.06172839506172839,0,0,0.06172839506172839,0,0)" xlink:href="#aK"/><use transform="matrix(0.06172839506172839,0,0,0.06172839506172839,15.987654320987653,0)" xlink:href="#ak"/><use transform="matrix(0.06172839506172839,0,0,0.06172839506172839,20.864197530864196,0)" xlink:href="#ao"/><use transform="matrix(0.06172839506172839,0,0,0.06172839506172839,33.20987654320987,0)" xlink:href="#at"/><use transform="matrix(0.06172839506172839,0,0,0.06172839506172839,44.32098765432099,0)" xlink:href="#ay"/></g><path fill="#333" d="M63-220v92h138v28H63V0H30v-248h175v28H63" id="aL"/><g id="I"><use transform="matrix(0.06172839506172839,0,0,0.06172839506172839,0,0)" xlink:href="#aL"/><use transform="matrix(0.06172839506172839,0,0,0.06172839506172839,13.518518518518517,0)" xlink:href="#ao"/><use transform="matrix(0.06172839506172839,0,0,0.06172839506172839,25.864197530864196,0)" xlink:href="#ac"/></g><g id="J"><use transform="matrix(0.06172839506172839,0,0,0.06172839506172839,0,0)" xlink:href="#ag"/><use transform="matrix(0.06172839506172839,0,0,0.06172839506172839,15.987654320987653,0)" xlink:href="#al"/><use transform="matrix(0.06172839506172839,0,0,0.06172839506172839,28.333333333333332,0)" xlink:href="#ak"/><use transform="matrix(0.06172839506172839,0,0,0.06172839506172839,33.20987654320987,0)" xlink:href="#al"/><use transform="matrix(0.06172839506172839,0,0,0.06172839506172839,45.55555555555555,0)" xlink:href="#at"/><use transform="matrix(0.06172839506172839,0,0,0.06172839506172839,56.66666666666666,0)" xlink:href="#aa"/><use transform="matrix(0.06172839506172839,0,0,0.06172839506172839,62.8395061728395,0)" xlink:href="#au"/><use transform="matrix(0.06172839506172839,0,0,0.06172839506172839,67.71604938271604,0)" xlink:href="#ao"/><use transform="matrix(0.06172839506172839,0,0,0.06172839506172839,80.06172839506172,0)" xlink:href="#ai"/></g><g id="K"><use transform="matrix(0.04320987654320987,0,0,0.04320987654320987,0,0)" xlink:href="#ah"/><use transform="matrix(0.04320987654320987,0,0,0.04320987654320987,10.370370370370368,0)" xlink:href="#ak"/><use transform="matrix(0.04320987654320987,0,0,0.04320987654320987,13.783950617283947,0)" xlink:href="#ab"/><use transform="matrix(0.04320987654320987,0,0,0.04320987654320987,22.42592592592592,0)" xlink:href="#ac"/><use transform="matrix(0.04320987654320987,0,0,0.04320987654320987,27.567901234567895,0)" xlink:href="#aJ"/></g><path fill="#333" d="M141 0L90-78 38 0H4l68-98-65-92h35l48 74 47-74h35l-64 92 68 98h-35" id="aM"/><g id="L"><use transform="matrix(0.04320987654320987,0,0,0.04320987654320987,0,0)" xlink:href="#ae"/><use transform="matrix(0.04320987654320987,0,0,0.04320987654320987,10.370370370370368,0)" xlink:href="#aM"/><use transform="matrix(0.04320987654320987,0,0,0.04320987654320987,18.148148148148145,0)" xlink:href="#aA"/><use transform="matrix(0.04320987654320987,0,0,0.04320987654320987,26.790123456790116,0)" xlink:href="#au"/><use transform="matrix(0.04320987654320987,0,0,0.04320987654320987,30.2037037037037,0)" xlink:href="#ac"/><use transform="matrix(0.04320987654320987,0,0,0.04320987654320987,35.34567901234567,0)" xlink:href="#al"/><use transform="matrix(0.04320987654320987,0,0,0.04320987654320987,43.987654320987644,0)" xlink:href="#ap"/><use transform="matrix(0.04320987654320987,0,0,0.04320987654320987,52.62962962962962,0)" xlink:href="#aw"/></g><g id="M"><use transform="matrix(0.06172839506172839,0,0,0.06172839506172839,0,0)" xlink:href="#Z"/><use transform="matrix(0.06172839506172839,0,0,0.06172839506172839,14.814814814814813,0)" xlink:href="#aa"/><use transform="matrix(0.06172839506172839,0,0,0.06172839506172839,20.98765432098765,0)" xlink:href="#ao"/><use transform="matrix(0.06172839506172839,0,0,0.06172839506172839,33.33333333333333,0)" xlink:href="#aA"/></g><g id="N"><use transform="matrix(0.04320987654320987,0,0,0.04320987654320987,0,0)" xlink:href="#ai"/><use transform="matrix(0.04320987654320987,0,0,0.04320987654320987,8.641975308641973,0)" xlink:href="#ao"/><use transform="matrix(0.04320987654320987,0,0,0.04320987654320987,17.283950617283946,0)" xlink:href="#ap"/><use transform="matrix(0.04320987654320987,0,0,0.04320987654320987,25.925925925925917,0)" xlink:href="#al"/></g><g id="O"><use transform="matrix(0.04320987654320987,0,0,0.04320987654320987,0,0)" xlink:href="#au"/><use transform="matrix(0.04320987654320987,0,0,0.04320987654320987,3.4135802469135794,0)" xlink:href="#ai"/></g><g id="P"><use transform="matrix(0.04320987654320987,0,0,0.04320987654320987,0,0)" xlink:href="#ad"/><use transform="matrix(0.04320987654320987,0,0,0.04320987654320987,10.370370370370368,0)" xlink:href="#ae"/><use transform="matrix(0.04320987654320987,0,0,0.04320987654320987,20.740740740740737,0)" xlink:href="#af"/><use transform="matrix(0.04320987654320987,0,0,0.04320987654320987,31.932098765432098,0)" xlink:href="#ag"/><use transform="matrix(0.04320987654320987,0,0,0.04320987654320987,43.12345679012345,0)" xlink:href="#ah"/></g><g id="Q"><use transform="matrix(0.06172839506172839,0,0,0.06172839506172839,0,0)" xlink:href="#aL"/><use transform="matrix(0.06172839506172839,0,0,0.06172839506172839,13.518518518518517,0)" xlink:href="#ao"/><use transform="matrix(0.06172839506172839,0,0,0.06172839506172839,25.864197530864196,0)" xlink:href="#ac"/></g><g id="R"><use transform="matrix(0.06172839506172839,0,0,0.06172839506172839,0,0)" xlink:href="#al"/><use transform="matrix(0.06172839506172839,0,0,0.06172839506172839,12.345679012345679,0)" xlink:href="#ab"/><use transform="matrix(0.06172839506172839,0,0,0.06172839506172839,24.691358024691358,0)" xlink:href="#at"/><use transform="matrix(0.06172839506172839,0,0,0.06172839506172839,35.80246913580247,0)" xlink:href="#as"/></g><g id="S"><use transform="matrix(0.06172839506172839,0,0,0.06172839506172839,0,0)" xlink:href="#ai"/><use transform="matrix(0.06172839506172839,0,0,0.06172839506172839,12.345679012345679,0)" xlink:href="#ao"/><use transform="matrix(0.06172839506172839,0,0,0.06172839506172839,24.691358024691358,0)" xlink:href="#ap"/><use transform="matrix(0.06172839506172839,0,0,0.06172839506172839,37.03703703703704,0)" xlink:href="#al"/></g><g id="T"><use transform="matrix(0.06172839506172839,0,0,0.06172839506172839,0,0)" xlink:href="#aq"/><use transform="matrix(0.06172839506172839,0,0,0.06172839506172839,11.11111111111111,0)" xlink:href="#al"/><use transform="matrix(0.06172839506172839,0,0,0.06172839506172839,23.45679012345679,0)" xlink:href="#ak"/><use transform="matrix(0.06172839506172839,0,0,0.06172839506172839,28.333333333333336,0)" xlink:href="#aB"/></g><g id="U"><use transform="matrix(0.06172839506172839,0,0,0.06172839506172839,0,0)" xlink:href="#at"/><use transform="matrix(0.06172839506172839,0,0,0.06172839506172839,11.11111111111111,0)" xlink:href="#as"/><use transform="matrix(0.06172839506172839,0,0,0.06172839506172839,23.45679012345679,0)" xlink:href="#al"/><use transform="matrix(0.06172839506172839,0,0,0.06172839506172839,35.80246913580247,0)" xlink:href="#at"/><use transform="matrix(0.06172839506172839,0,0,0.06172839506172839,46.91358024691358,0)" xlink:href="#ay"/></g><g id="V"><use transform="matrix(0.06172839506172839,0,0,0.06172839506172839,0,0)" xlink:href="#ah"/><use transform="matrix(0.06172839506172839,0,0,0.06172839506172839,14.814814814814813,0)" xlink:href="#ak"/><use transform="matrix(0.06172839506172839,0,0,0.06172839506172839,19.691358024691354,0)" xlink:href="#al"/><use transform="matrix(0.06172839506172839,0,0,0.06172839506172839,32.03703703703703,0)" xlink:href="#ac"/><use transform="matrix(0.06172839506172839,0,0,0.06172839506172839,39.38271604938271,0)" xlink:href="#aa"/></g><path fill="#333" d="M68-38c1 34 0 65-14 84H32c9-13 17-26 17-46H33v-38h35" id="aN"/><g id="W"><use transform="matrix(0.06172839506172839,0,0,0.06172839506172839,0,0)" xlink:href="#ar"/><use transform="matrix(0.06172839506172839,0,0,0.06172839506172839,6.172839506172839,0)" xlink:href="#ai"/><use transform="matrix(0.06172839506172839,0,0,0.06172839506172839,18.51851851851852,0)" xlink:href="#ab"/><use transform="matrix(0.06172839506172839,0,0,0.06172839506172839,30.864197530864196,0)" xlink:href="#at"/><use transform="matrix(0.06172839506172839,0,0,0.06172839506172839,41.9753086419753,0)" xlink:href="#aa"/><use transform="matrix(0.06172839506172839,0,0,0.06172839506172839,48.148148148148145,0)" xlink:href="#au"/><use transform="matrix(0.06172839506172839,0,0,0.06172839506172839,53.02469135802469,0)" xlink:href="#av"/><use transform="matrix(0.06172839506172839,0,0,0.06172839506172839,64.1358024691358,0)" xlink:href="#al"/><use transform="matrix(0.06172839506172839,0,0,0.06172839506172839,76.48148148148148,0)" xlink:href="#aN"/></g><g id="X"><use transform="matrix(0.06172839506172839,0,0,0.06172839506172839,0,0)" xlink:href="#ag"/><use transform="matrix(0.06172839506172839,0,0,0.06172839506172839,15.987654320987653,0)" xlink:href="#al"/><use transform="matrix(0.06172839506172839,0,0,0.06172839506172839,28.333333333333332,0)" xlink:href="#aJ"/><use transform="matrix(0.06172839506172839,0,0,0.06172839506172839,46.79012345679012,0)" xlink:href="#ao"/><use transform="matrix(0.06172839506172839,0,0,0.06172839506172839,59.1358024691358,0)" xlink:href="#av"/><use transform="matrix(0.06172839506172839,0,0,0.06172839506172839,70.24691358024691,0)" xlink:href="#al"/></g><g id="Y"><use transform="matrix(0.06172839506172839,0,0,0.06172839506172839,0,0)" xlink:href="#aB"/><use transform="matrix(0.06172839506172839,0,0,0.06172839506172839,6.172839506172839,0)" xlink:href="#ac"/><use transform="matrix(0.06172839506172839,0,0,0.06172839506172839,13.518518518518519,0)" xlink:href="#ao"/><use transform="matrix(0.06172839506172839,0,0,0.06172839506172839,25.864197530864196,0)" xlink:href="#aJ"/></g></defs></g></svg>